<?xml version="1.0" standalone="no"?>
<!DOCTYPE svg PUBLIC "-//W3C//DTD SVG 20010904//EN"
 "http://www.w3.org/TR/2001/REC-SVG-20010904/DTD/svg10.dtd">
<svg version="1.0" xmlns="http://www.w3.org/2000/svg"
 width="815.000000pt" height="941.000000pt" viewBox="0 0 815.000000 941.000000"
 preserveAspectRatio="xMidYMid meet">
<metadata>
Created by potrace 1.16, written by Peter Selinger 2001-2019
</metadata>
<g transform="translate(0.000000,941.000000) scale(0.100000,-0.100000)"
fill="#000000" stroke="none">
<path d="M0 4700 l0 -4700 4065 0 4065 0 0 4700 0 4700 -4065 0 -4065 0 0
-4700z m8060 0 l0 -4630 -3995 0 -3995 0 0 4630 0 4630 3995 0 3995 0 0 -4630z"/>
<path d="M270 4710 l0 -4400 3760 0 3760 0 0 4400 0 4400 -3760 0 -3760 0 0
-4400z m7450 2330 c0 -1094 0 -2543 0 -3220 0 -676 0 -1727 0 -2335 l0 -1105
-3690 0 -3690 0 0 4325 0 4325 3690 0 3690 0 0 -1990z"/>
<path d="M2730 8075 c-228 -51 -403 -223 -472 -460 -20 -70 -23 -103 -23 -255
0 -171 1 -177 31 -263 42 -115 86 -188 160 -261 71 -72 145 -118 246 -153 64
-23 90 -26 208 -27 80 0 157 5 190 13 80 19 207 84 267 136 103 91 186 251
213 415 17 100 7 291 -20 388 -63 226 -213 385 -425 452 -91 29 -280 36 -375
15z m299 -174 c124 -39 214 -117 272 -237 79 -167 79 -420 0 -591 -34 -71
-113 -160 -175 -197 -146 -86 -352 -77 -494 21 -139 95 -202 240 -202 466 0
200 41 330 135 424 53 53 147 107 213 122 67 16 186 12 251 -8z"/>
<path d="M880 7370 l0 -700 95 0 95 0 0 403 c0 221 0 463 0 537 l0 135 87
-130 c47 -72 89 -132 93 -135 4 -3 9 -10 11 -16 2 -7 121 -188 264 -403 l260
-390 98 -1 97 0 0 700 0 700 -90 0 -90 0 -2 -536 -3 -536 -358 536 -359 536
-99 0 -99 0 0 -700z"/>
<path d="M3680 7980 l0 -90 230 0 230 0 0 -610 0 -610 95 0 95 0 0 610 0 610
230 0 230 0 0 90 0 90 -555 0 -555 0 0 -90z"/>
<path d="M4970 7370 l0 -700 525 0 525 0 0 85 0 85 -425 0 -425 0 0 235 0 235
380 0 380 0 0 80 0 80 -380 0 -380 0 0 210 0 210 410 0 410 0 0 90 0 90 -510
0 -510 0 0 -700z"/>
<path d="M880 4970 l0 -700 95 0 96 0 -1 393 c0 215 0 471 0 567 l1 175 64
-185 c35 -102 121 -356 192 -565 l129 -380 88 0 88 0 129 370 c71 204 130 377
132 385 2 8 7 22 10 30 4 8 31 85 61 170 l55 155 1 -170 c0 -93 0 -344 0 -557
l0 -388 95 0 95 0 0 700 0 700 -127 0 -128 0 -103 -300 c-57 -164 -105 -305
-106 -312 -2 -7 -7 -22 -12 -33 -4 -11 -47 -133 -94 -272 l-86 -252 -194 585
-195 584 -142 0 -143 0 0 -700z"/>
<path d="M2500 4970 l0 -700 523 2 522 3 3 88 3 87 -431 0 -430 0 0 230 0 230
385 0 385 0 0 85 0 85 -385 0 -385 0 0 210 0 210 410 0 410 0 0 85 0 85 -505
0 -505 0 0 -700z"/>
<path d="M2785 3290 c-258 -36 -455 -215 -531 -480 -15 -52 -19 -100 -19 -235
0 -151 3 -179 23 -245 74 -236 240 -400 462 -456 86 -22 253 -22 345 0 182 44
335 165 414 328 62 127 84 247 78 408 -6 148 -24 225 -80 340 -77 158 -228
281 -401 325 -75 19 -214 26 -291 15z m220 -175 c225 -59 358 -263 356 -548
-1 -176 -50 -314 -145 -411 -182 -187 -490 -178 -663 19 -88 99 -123 211 -123
390 0 134 16 228 55 312 85 187 313 292 520 238z"/>
<path d="M880 2574 l0 -696 348 4 c346 4 347 4 429 31 184 62 306 211 359 442
28 121 26 361 -4 473 -34 125 -84 216 -161 293 -133 132 -207 149 -652 149
l-319 0 0 -696z m715 496 c114 -44 201 -164 231 -318 45 -233 -14 -507 -132
-610 -80 -71 -135 -84 -391 -89 l-222 -5 -3 278 c-2 154 -2 391 0 528 l2 248
228 -4 c207 -4 232 -7 287 -28z"/>
<path d="M3663 3258 c2 -7 41 -152 86 -323 45 -170 85 -317 88 -325 3 -8 7
-22 8 -30 2 -14 141 -541 171 -647 l15 -53 99 0 c55 0 100 2 100 5 0 5 69 253
245 885 30 107 61 220 69 250 13 53 14 54 21 25 4 -16 78 -284 164 -595 l156
-565 95 -3 95 -2 93 342 c52 189 95 350 96 358 2 8 6 22 9 30 9 23 177 639
177 650 0 6 -38 10 -95 10 l-94 0 -11 -38 c-13 -52 -148 -606 -211 -867 -27
-115 -52 -217 -55 -225 -3 -8 -19 48 -35 125 -15 77 -40 181 -54 230 -14 50
-28 97 -30 107 -2 9 -45 163 -95 342 l-93 326 -116 0 -116 0 -142 -507 c-79
-280 -150 -543 -159 -586 l-17 -78 -28 133 c-15 73 -40 189 -57 258 -17 69
-60 256 -97 415 -36 160 -71 307 -76 328 l-10 37 -100 0 c-77 0 -100 -3 -96
-12z"/>
<path d="M5610 2575 l0 -695 95 0 95 0 0 526 c0 290 1 529 3 531 2 2 55 -73
117 -167 62 -93 117 -170 121 -170 5 0 9 -6 9 -12 0 -7 104 -169 232 -360
l233 -347 98 -1 97 0 0 695 0 695 -90 0 -90 0 -2 -532 -3 -533 -355 532 -355
532 -102 1 -103 0 0 -695z"/>
</g>
</svg>
